<?xml version="1.0" encoding="UTF-8"?><svg id="Layer_1" xmlns="http://www.w3.org/2000/svg" viewBox="0 0 305.97 276.58"><defs><style>.cls-1{fill:#404040;}</style></defs><path class="cls-1" d="M175.62,158.8c-.63-.86-1.47-1.42-2.54-1.68-1.13-.19-2.3-.33-3.5-.43-5.23-.47-11.08-.16-17.56,.93-7.96,1.34-16.17,3.37-24.61,6.08-8.45,2.72-16.98,5.98-25.6,9.8-8.62,3.82-16.63,7.7-24.02,11.65-2.12,1.27-4.14,2.43-6.07,3.48-1.92,1.05-3.91,2.13-5.95,3.23-2.59-6.43-6.49-13.7-11.7-21.83-10.47-15.69-16.67-30.3-18.59-43.83-1.93-13.53,.29-25.94,6.67-37.22,3.58-6.55,8.34-12.31,14.3-17.26,5.95-4.96,12.36-9.03,19.24-12.21,6.86-3.19,13.91-5.51,21.14-6.97,7.22-1.46,14.01-2.01,20.37-1.67,7,.22,12.72,1.47,17.17,3.76,4.45,2.29,7.43,5.13,8.93,8.53,0,0,0,.01,0,.02,.45,1.08,1.5,1.8,2.68,1.8h2.29c2.05,0,3.44-2.07,2.68-3.98-.13-.32-.26-.65-.4-.97-2.35-5.13-6.42-9.13-12.19-11.98-5.79-2.86-12.71-4.53-20.79-5.01-6.93-.38-14.33,.21-22.19,1.79-7.87,1.58-15.57,4.16-23.11,7.76-7.54,3.59-14.57,8.08-21.1,13.48-6.54,5.4-11.86,11.76-15.96,19.07-2.49,4.46-4.55,9.65-6.17,15.56-1.63,5.91-2.26,12.59-1.88,20.04,.37,7.45,2.11,15.63,5.22,24.54,3.1,8.91,8.15,18.59,15.13,29.05,4.99,7.25,8.8,14.49,11.45,21.72-16.43,10.35-29.17,20.01-38.2,28.97-9.04,8.97-14.99,16.58-17.86,22.85-2.93,6.44-3.64,11.7-2.13,15.79s3.59,7.2,6.23,9.31c1.53,1.04,2.71,1.74,3.54,2.1,2.67,1.13,5.81,1.63,9.42,1.49,3.61-.14,7.32-.77,11.15-1.9,3.84-1.13,7.65-2.8,11.46-5.03,3.8-2.22,7.4-4.78,10.8-7.67,2.3-2.17,4.87-5.07,7.69-8.7,2.83-3.63,5.24-8.02,7.24-13.18,2-5.16,3.15-11.12,3.47-17.88,.32-6.77-.8-14.34-3.34-22.71,2.11-1.26,4.27-2.51,6.47-3.75,2.2-1.23,4.35-2.47,6.47-3.74,9.21-4.96,18.26-9.33,27.17-13.13,8.9-3.79,17.25-6.84,25.03-9.15,7.78-2.3,14.91-3.9,21.4-4.78,3.84-.53,7.39-.75,10.63-.66,2.23,.05,4.31,.25,6.25,.6,2.37,.42,3.81-.64,4.31-3.19,.26-1.08,.08-2.04-.54-2.89Zm-127.48,97.39c-3.47,3.05-7.04,5.53-10.7,7.42-3.66,1.89-7.15,3.26-10.47,4.11-3.32,.86-6.34,1.24-9.07,1.17-2.72-.08-4.73-.68-6.02-1.82-2.15-1.91-3.42-4.12-3.82-6.66-.4-2.53,.27-5.6,2-9.2,3-6.6,9.04-14.08,18.12-22.44,9.07-8.36,20.22-16.72,33.44-25.08,6.1,21.32,1.6,38.82-13.48,52.5Z"/><path class="cls-1" d="M305.91,14.51c-.68-5.81-3.62-10.02-8.82-12.62-3.53-1.9-7.17-2.36-10.93-1.4-3.76,.96-7.25,2.43-10.45,4.41-.86,.63-1.58,1.16-2.16,1.6-.59,.44-1.11,.76-1.59,.95-5.75,4.25-10.97,8.98-15.64,14.18-4.68,5.21-8.94,10.24-12.79,15.11-9.35,11.78-18.07,23.93-26.16,36.46-8.09,12.51-15.91,25.35-23.47,38.48-5.81,9.95-11.22,19.76-16.23,29.46-2.68,5.19-5.38,10.37-8.09,15.55-1.32,2.53-2.65,5.06-3.98,7.59-1.03,1.96-2.06,3.92-3.09,5.88-2.82,5.7-6.15,12.46-9.97,20.29-3.83,7.83-7.46,15.55-10.89,23.15s-6.18,14.52-8.23,20.74c-2.06,6.22-2.74,10.36-2.04,12.43,.57,1.43,1.44,2.39,2.61,2.89,2.34,.99,5.09-.15,8.26-3.43,3.17-3.29,8.05-9.43,14.65-18.45,3.15-4.17,6.69-8.88,10.59-14.12,3.9-5.23,7.84-9.96,11.81-14.19,4.1-4.55,7.82-7.95,11.13-10.19,3.32-2.23,5.98-2.92,7.98-2.07l.25,.11c1.5,.64,1.81,3.04,.93,7.19-.89,4.16-2.76,10.06-5.62,17.71-.12,.74-.28,1.36-.49,1.86-.22,.5-.39,.92-.54,1.25-.66,2.48-1.37,4.84-2.12,7.08-.76,2.24-1.55,4.56-2.38,6.97-.54,1.74-1.1,3.87-1.68,6.38-.58,2.51-.89,4.99-.94,7.43-.06,2.44,.41,4.81,1.41,7.1,.99,2.3,2.82,4.01,5.49,5.15,2.6,1.3,5.49,1.45,8.68,.44,1.52-.34,2.98-.85,4.36-1.54,1.37-.7,2.73-1.45,4.06-2.26,3.38-1.92,6.77-3.87,10.18-5.87,3.41-1.99,6.81-3.95,10.19-5.86,7.2-4.42,14.41-8.65,21.64-12.66,7.23-4.02,14.47-7.15,21.73-9.38,2.38-.96,3.21-2.67,2.49-5.15-.79-2.3-2.43-3.1-4.9-2.38-7.88,2.76-15.51,6.11-22.9,10.06-3.62,2.01-7.27,4.1-10.95,6.27-3.69,2.18-7.38,4.36-11.06,6.53-3.62,2.01-7.07,3.99-10.36,5.94-3.3,1.95-6.6,3.8-9.9,5.54l-3.53,2.05c-1.02,.55-2.15,1-3.39,1.36s-2.27,.36-3.1,.01c-2.27-1.16-3.13-3.3-2.59-6.42,.54-3.12,1.42-6.59,2.65-10.4,.66-2.48,1.35-4.8,2.07-6.95,.72-2.16,1.41-4.48,2.07-6.96l1.28-3c.9-2.57,1.89-5.6,2.98-9.08,1.08-3.48,1.81-6.91,2.17-10.31,.36-3.39,.27-6.43-.25-9.12-.54-2.69-2.02-4.65-4.45-5.88-3.86-2.04-7.97-1.87-12.34,.51-4.36,2.38-8.76,5.78-13.2,10.19-4.45,4.42-8.83,9.5-13.14,15.25-4.33,5.75-8.47,11.43-12.43,17.03-1.73,2.22-3.46,4.54-5.18,6.96-1.72,2.42-3.37,4.57-4.96,6.46,1.84-5.72,5.15-13.97,9.94-24.74,4.78-10.77,11.1-23.55,18.97-38.33l1.28-3.01c3.42-2.48,8.01-6.09,13.78-10.83,5.76-4.75,12.19-10.24,19.28-16.48,7.09-6.24,14.59-13.1,22.5-20.58,7.91-7.47,15.68-15.2,23.32-23.18,7.63-7.99,14.94-16.01,21.92-24.07,6.98-8.07,13.06-15.88,18.25-23.43,5.18-7.55,9.24-14.54,12.18-20.97,2.93-6.44,4.22-12,3.85-16.69Zm-13.06,18.53c-3.91,7.11-9.16,14.92-15.75,23.45-6.58,8.53-14.15,17.38-22.68,26.56-8.54,9.18-17.28,18.12-26.2,26.83-8.94,8.72-17.69,16.91-26.28,24.59-8.59,7.68-16.13,14.27-22.61,19.79,3.34-6.46,6.76-12.89,10.27-19.28,3.5-6.39,7.17-12.91,10.99-19.56,7.58-12.74,15.36-25.34,23.33-37.81,7.97-12.47,16.59-24.52,25.88-36.14,3.6-4.77,7.63-9.61,12.09-14.51,4.45-4.91,9.28-9.3,14.48-13.2,3.97-2.84,7.33-4.61,10.1-5.31,2.75-.7,5.05-.66,6.89,.12l.25,.11c1.5,.64,2.57,1.49,3.2,2.55,.63,1.05,1.08,2.43,1.35,4.12,.37,4.69-1.4,10.59-5.31,17.69Z"/></svg>