<?xml version="1.0" encoding="utf-8"?>
<!-- Generator: Adobe Illustrator 26.0.2, SVG Export Plug-In . SVG Version: 6.00 Build 0)  -->
<svg version="1.1" id="Layer_1" xmlns="http://www.w3.org/2000/svg" xmlns:xlink="http://www.w3.org/1999/xlink" x="0px" y="0px"
	 viewBox="0 0 1920 1080" style="enable-background:new 0 0 1920 1080;" xml:space="preserve">
<style type="text/css">
	.st0{fill:#F2E2E3;}
	.st1{fill:none;stroke:#FC0000;stroke-width:6;stroke-miterlimit:10;}
	.st2{fill:url(#SVGID_1_);stroke:#FC0000;stroke-width:6;stroke-miterlimit:10;}
	.st3{fill:#3F3F3F;}
	.st4{fill:url(#SVGID_00000034779309631007505510000002017945100617306515_);stroke:#FC0000;stroke-width:6;stroke-miterlimit:10;}
	.st5{fill:url(#SVGID_00000034771042737095225430000010077198396187907516_);}
	.st6{fill:url(#SVGID_00000084496845037131908190000014892577237662671262_);}
	.st7{fill:none;}
	.st8{font-family:'Cochin-Bold';}
	.st9{font-size:42px;}
	.st10{fill:none;stroke:#3F3F3F;stroke-miterlimit:10;}
	.st11{fill:url(#SVGID_00000070797072083831022440000007797228679283785150_);stroke:#FC0000;stroke-width:6;stroke-miterlimit:10;}
	.st12{fill:url(#SVGID_00000070104102068337925220000002766102619888714399_);stroke:#FC0000;stroke-width:6;stroke-miterlimit:10;}
	.st13{opacity:0.5;fill:none;stroke:#333333;stroke-miterlimit:10;}
	.st14{font-family:'MyriadPro-Regular';}
	.st15{font-size:65px;}
</style>
<rect class="st0" width="1920" height="1080"/>
<line class="st1" x1="959.85" y1="643.88" x2="959.84" y2="643.88"/>
<line class="st1" x1="959.85" y1="643.88" x2="959.84" y2="643.88"/>
<g>
	<path class="st3" d="M982.48,474.54c-0.63-0.86-1.47-1.42-2.54-1.68c-1.13-0.19-2.3-0.33-3.5-0.43
		c-5.23-0.47-11.08-0.16-17.56,0.93c-7.96,1.34-16.17,3.37-24.61,6.08c-8.45,2.72-16.98,5.98-25.6,9.8
		c-8.62,3.82-16.63,7.7-24.02,11.65c-2.12,1.27-4.14,2.43-6.07,3.48c-1.92,1.05-3.91,2.13-5.95,3.23
		c-2.59-6.43-6.49-13.7-11.7-21.83c-10.47-15.69-16.67-30.3-18.59-43.83c-1.93-13.53,0.29-25.94,6.67-37.22
		c3.58-6.55,8.34-12.31,14.3-17.26c5.95-4.96,12.36-9.03,19.24-12.21c6.86-3.19,13.91-5.51,21.14-6.97
		c7.22-1.46,14.01-2.01,20.37-1.67c7,0.22,12.72,1.47,17.17,3.76c4.45,2.29,7.43,5.13,8.93,8.53c0,0.01,0.01,0.01,0.01,0.02
		c0.45,1.08,1.5,1.8,2.68,1.8h2.29c2.05,0,3.44-2.07,2.68-3.98c-0.13-0.32-0.26-0.65-0.4-0.97c-2.35-5.13-6.42-9.13-12.19-11.98
		c-5.79-2.86-12.71-4.53-20.79-5.01c-6.93-0.38-14.33,0.21-22.19,1.79c-7.87,1.58-15.57,4.16-23.11,7.76
		c-7.54,3.59-14.57,8.08-21.1,13.48c-6.54,5.4-11.86,11.76-15.96,19.07c-2.49,4.46-4.55,9.65-6.17,15.56
		c-1.63,5.91-2.26,12.59-1.88,20.04c0.37,7.45,2.11,15.63,5.22,24.54c3.1,8.91,8.15,18.59,15.13,29.05
		c4.99,7.25,8.8,14.49,11.45,21.72c-16.43,10.35-29.17,20.01-38.2,28.97c-9.04,8.97-14.99,16.58-17.86,22.85
		c-2.93,6.44-3.64,11.7-2.13,15.79s3.59,7.2,6.23,9.31c1.53,1.04,2.71,1.74,3.54,2.1c2.67,1.13,5.81,1.63,9.42,1.49
		c3.61-0.14,7.32-0.77,11.15-1.9c3.84-1.13,7.65-2.8,11.46-5.03c3.8-2.22,7.4-4.78,10.8-7.67c2.3-2.17,4.87-5.07,7.69-8.7
		c2.83-3.63,5.24-8.02,7.24-13.18c2-5.16,3.15-11.12,3.47-17.88c0.32-6.77-0.8-14.34-3.34-22.71c2.11-1.26,4.27-2.51,6.47-3.75
		c2.2-1.23,4.35-2.47,6.47-3.74c9.21-4.96,18.26-9.33,27.17-13.13c8.9-3.79,17.25-6.84,25.03-9.15c7.78-2.3,14.91-3.9,21.4-4.78
		c3.84-0.53,7.39-0.75,10.63-0.66c2.23,0.05,4.31,0.25,6.25,0.6c2.37,0.42,3.81-0.64,4.31-3.19
		C983.28,476.35,983.1,475.39,982.48,474.54z M855,571.93c-3.47,3.05-7.04,5.53-10.7,7.42c-3.66,1.89-7.15,3.26-10.47,4.11
		c-3.32,0.86-6.34,1.24-9.07,1.17c-2.72-0.08-4.73-0.68-6.02-1.82c-2.15-1.91-3.42-4.12-3.82-6.66c-0.4-2.53,0.27-5.6,2-9.2
		c3-6.6,9.04-14.08,18.12-22.44c9.07-8.36,20.22-16.72,33.44-25.08C874.58,540.75,870.08,558.25,855,571.93z"/>
	<path class="st3" d="M1112.77,330.25c-0.68-5.81-3.62-10.02-8.82-12.62c-3.53-1.9-7.17-2.36-10.93-1.4
		c-3.76,0.96-7.25,2.43-10.45,4.41c-0.86,0.63-1.58,1.16-2.16,1.6c-0.59,0.44-1.11,0.76-1.59,0.95
		c-5.75,4.25-10.97,8.98-15.64,14.18c-4.68,5.21-8.94,10.24-12.79,15.11c-9.35,11.78-18.07,23.93-26.16,36.46
		c-8.09,12.51-15.91,25.35-23.47,38.48c-5.81,9.95-11.22,19.76-16.23,29.46c-2.68,5.19-5.38,10.37-8.09,15.55
		c-1.32,2.53-2.65,5.06-3.98,7.59c-1.03,1.96-2.06,3.92-3.09,5.88c-2.82,5.7-6.15,12.46-9.97,20.29
		c-3.83,7.83-7.46,15.55-10.89,23.15s-6.18,14.52-8.23,20.74c-2.06,6.22-2.74,10.36-2.04,12.43c0.57,1.43,1.44,2.39,2.61,2.89
		c2.34,0.99,5.09-0.15,8.26-3.43c3.17-3.29,8.05-9.43,14.65-18.45c3.15-4.17,6.69-8.88,10.59-14.12c3.9-5.23,7.84-9.96,11.81-14.19
		c4.1-4.55,7.82-7.95,11.13-10.19c3.32-2.23,5.98-2.92,7.98-2.07l0.25,0.11c1.5,0.64,1.81,3.04,0.93,7.19
		c-0.89,4.16-2.76,10.06-5.62,17.71c-0.12,0.74-0.28,1.36-0.49,1.86c-0.22,0.5-0.39,0.92-0.54,1.25c-0.66,2.48-1.37,4.84-2.12,7.08
		c-0.76,2.24-1.55,4.56-2.38,6.97c-0.54,1.74-1.1,3.87-1.68,6.38c-0.58,2.51-0.89,4.99-0.94,7.43c-0.06,2.44,0.41,4.81,1.41,7.1
		c0.99,2.3,2.82,4.01,5.49,5.15c2.6,1.3,5.49,1.45,8.68,0.44c1.52-0.34,2.98-0.85,4.36-1.54c1.37-0.7,2.73-1.45,4.06-2.26
		c3.38-1.92,6.77-3.87,10.18-5.87c3.41-1.99,6.81-3.95,10.19-5.86c7.2-4.42,14.41-8.65,21.64-12.66c7.23-4.02,14.47-7.15,21.73-9.38
		c2.38-0.96,3.21-2.67,2.49-5.15c-0.79-2.3-2.43-3.1-4.9-2.38c-7.88,2.76-15.51,6.11-22.9,10.06c-3.62,2.01-7.27,4.1-10.95,6.27
		c-3.69,2.18-7.38,4.36-11.06,6.53c-3.62,2.01-7.07,3.99-10.36,5.94c-3.3,1.95-6.6,3.8-9.9,5.54l-3.53,2.05
		c-1.02,0.55-2.15,1-3.39,1.36s-2.27,0.36-3.1,0.01c-2.27-1.16-3.13-3.3-2.59-6.42c0.54-3.12,1.42-6.59,2.65-10.4
		c0.66-2.48,1.35-4.8,2.07-6.95c0.72-2.16,1.41-4.48,2.07-6.96l1.28-3c0.9-2.57,1.89-5.6,2.98-9.08c1.08-3.48,1.81-6.91,2.17-10.31
		c0.36-3.39,0.27-6.43-0.25-9.12c-0.54-2.69-2.02-4.65-4.45-5.88c-3.86-2.04-7.97-1.87-12.34,0.51c-4.36,2.38-8.76,5.78-13.2,10.19
		c-4.45,4.42-8.83,9.5-13.14,15.25c-4.33,5.75-8.47,11.43-12.43,17.03c-1.73,2.22-3.46,4.54-5.18,6.96
		c-1.72,2.42-3.37,4.57-4.96,6.46c1.84-5.72,5.15-13.97,9.94-24.74c4.78-10.77,11.1-23.55,18.97-38.33l1.28-3.01
		c3.42-2.48,8.01-6.09,13.78-10.83c5.76-4.75,12.19-10.24,19.28-16.48s14.59-13.1,22.5-20.58c7.91-7.47,15.68-15.2,23.32-23.18
		c7.63-7.99,14.94-16.01,21.92-24.07c6.98-8.07,13.06-15.88,18.25-23.43c5.18-7.55,9.24-14.54,12.18-20.97
		C1111.85,340.5,1113.14,334.94,1112.77,330.25z M1099.71,348.78c-3.91,7.11-9.16,14.92-15.75,23.45
		c-6.58,8.53-14.15,17.38-22.68,26.56c-8.54,9.18-17.28,18.12-26.2,26.83c-8.94,8.72-17.69,16.91-26.28,24.59
		c-8.59,7.68-16.13,14.27-22.61,19.79c3.34-6.46,6.76-12.89,10.27-19.28c3.5-6.39,7.17-12.91,10.99-19.56
		c7.58-12.74,15.36-25.34,23.33-37.81c7.97-12.47,16.59-24.52,25.88-36.14c3.6-4.77,7.63-9.61,12.09-14.51
		c4.45-4.91,9.28-9.3,14.48-13.2c3.97-2.84,7.33-4.61,10.1-5.31c2.75-0.7,5.05-0.66,6.89,0.12l0.25,0.11
		c1.5,0.64,2.57,1.49,3.2,2.55c0.63,1.05,1.08,2.43,1.35,4.12C1105.39,335.78,1103.62,341.68,1099.71,348.78z"/>
</g>
<rect x="522.68" y="751.26" class="st7" width="871.44" height="36.17"/>
<text transform="matrix(1 0 0 1 652.7653 781.1658)" class="st3 st8 st9">Shahad Mohammed Alsayed</text>
<line class="st10" x1="651.63" y1="826.02" x2="1197.3" y2="826.02"/>
<text transform="matrix(0.8466 0 0 1 1219.7618 826.0155)" class="st14 st15">..</text>
</svg>
